<svg id="svg" version="1.1" xmlns="http://www.w3.org/2000/svg" xmlns:xlink="http://www.w3.org/1999/xlink" width="400" height="400" viewBox="0, 0, 400,400"><g id="svgg"><path id="path0" d="M284.400 165.800 C 238.310 211.890,200.330 249.600,200.000 249.600 C 199.669 249.600,178.699 228.900,153.400 203.600 C 128.101 178.300,107.222 157.600,107.003 157.600 C 106.478 157.600,75.599 188.476,75.602 188.998 C 75.604 189.460,106.256 220.081,107.271 220.634 C 107.639 220.835,128.556 241.565,153.751 266.700 C 178.946 291.835,199.778 312.400,200.043 312.400 C 200.308 312.400,219.602 293.275,242.918 269.900 C 266.234 246.525,308.397 204.270,336.615 176.000 C 373.311 139.236,388.172 124.095,388.805 122.827 C 393.519 113.387,393.077 102.462,387.645 94.142 C 383.585 87.924,374.694 82.000,369.422 82.000 C 368.329 82.000,359.313 90.886,284.400 165.800 M150.065 97.506 C 132.465 111.267,131.920 111.744,132.413 112.963 C 132.599 113.423,133.493 116.230,134.400 119.200 C 135.307 122.170,136.206 124.986,136.397 125.458 C 136.692 126.186,141.130 129.626,149.996 136.000 C 151.067 136.770,155.350 139.895,159.513 142.944 L 167.083 148.487 167.340 152.944 C 167.481 155.395,167.598 161.450,167.601 166.400 C 167.606 176.918,167.146 175.522,173.026 182.878 C 175.432 185.888,178.631 189.907,180.135 191.809 L 182.870 195.267 182.435 197.766 C 182.196 199.141,182.000 201.062,182.000 202.036 L 182.000 203.807 190.999 212.799 L 199.997 221.790 204.699 217.125 C 207.284 214.560,211.335 210.548,213.700 208.210 L 218.000 203.960 218.000 201.854 C 218.000 200.695,217.814 198.739,217.586 197.507 L 217.172 195.268 223.630 187.134 C 227.183 182.660,230.609 178.298,231.244 177.440 L 232.400 175.880 232.401 169.040 C 232.402 165.278,232.519 159.132,232.661 155.383 L 232.920 148.566 239.160 143.998 C 242.592 141.486,247.020 138.241,249.000 136.788 C 250.980 135.335,254.130 133.028,256.000 131.661 C 263.476 126.198,263.462 126.212,264.212 123.707 C 264.845 121.595,266.696 115.740,267.560 113.119 C 267.797 112.401,267.762 111.851,267.458 111.481 C 266.547 110.374,247.143 95.200,246.638 95.200 C 246.346 95.200,246.536 97.247,247.195 101.200 C 247.562 103.402,248.138 107.573,248.616 111.480 C 248.868 113.546,248.860 113.564,247.535 114.124 C 246.801 114.435,245.300 115.095,244.200 115.591 C 243.100 116.087,241.660 116.723,241.000 117.004 C 239.698 117.559,236.517 118.961,234.600 119.825 C 233.940 120.123,230.883 121.454,227.806 122.783 L 222.212 125.200 200.094 125.200 L 177.976 125.200 175.488 124.159 C 174.120 123.586,172.280 122.797,171.400 122.406 C 170.520 122.014,168.450 121.112,166.800 120.400 C 165.150 119.688,163.035 118.767,162.100 118.353 C 158.582 116.795,156.537 115.882,154.488 114.955 C 153.327 114.430,152.221 114.000,152.031 114.000 C 151.465 114.000,151.230 112.944,151.436 111.323 C 151.892 107.729,152.467 103.645,152.804 101.600 C 153.996 94.382,154.018 94.415,150.065 97.506 M69.923 194.699 C 68.535 195.964,55.925 208.450,41.900 222.446 L 16.400 247.894 16.400 279.347 C 16.400 296.646,16.536 310.800,16.703 310.800 C 17.172 310.800,91.600 236.245,91.600 235.775 C 91.600 235.547,91.452 235.189,91.272 234.980 C 91.092 234.771,90.519 233.250,90.000 231.600 C 89.481 229.950,88.908 228.429,88.728 228.220 C 88.548 228.011,88.400 227.437,88.400 226.944 C 88.400 226.451,88.241 225.949,88.046 225.829 C 87.851 225.708,87.603 225.113,87.494 224.505 C 86.992 221.715,80.185 203.544,77.963 199.062 C 77.543 198.216,77.200 197.346,77.200 197.129 C 77.200 196.656,73.200 192.400,72.755 192.400 C 72.585 192.400,71.310 193.435,69.923 194.699 " stroke="none" fill="#e3f3fb" fill-rule="evenodd"></path><path id="path1" d="M171.800 32.593 C 162.243 34.127,154.865 39.423,142.810 53.404 C 134.339 63.228,127.483 68.318,118.949 71.120 C 115.335 72.306,113.829 72.402,97.000 72.521 C 79.489 72.644,79.927 72.576,76.563 75.676 C 74.958 77.157,74.135 78.433,73.455 80.500 C 73.237 81.164,75.230 81.199,111.713 81.174 L 150.200 81.149 153.800 76.518 C 162.223 65.682,171.247 58.109,178.687 55.629 C 182.096 54.493,217.098 54.339,220.827 55.443 C 228.288 57.652,236.866 64.723,246.132 76.300 L 250.053 81.200 288.453 81.200 L 326.854 81.200 326.576 80.300 C 325.699 77.455,323.554 75.058,320.558 73.571 L 318.600 72.600 303.000 72.507 C 286.211 72.407,284.702 72.312,281.017 71.120 C 272.547 68.381,265.447 62.967,255.944 52.003 C 244.621 38.938,236.806 33.582,227.400 32.440 C 222.075 31.793,175.993 31.920,171.800 32.593 M33.105 81.483 C 33.602 81.579,34.322 81.575,34.705 81.475 C 35.087 81.375,34.680 81.296,33.800 81.301 C 32.920 81.305,32.607 81.387,33.105 81.483 M365.700 81.476 C 366.085 81.576,366.715 81.576,367.100 81.476 C 367.485 81.375,367.170 81.293,366.400 81.293 C 365.630 81.293,365.315 81.375,365.700 81.476 M16.818 130.200 C 17.755 131.532,75.346 189.061,74.881 188.200 C 74.643 187.760,61.355 174.350,45.352 158.400 C 29.349 142.450,16.509 129.760,16.818 130.200 M361.399 152.100 L 339.800 173.800 361.500 152.201 C 381.671 132.125,383.380 130.400,383.099 130.400 C 383.043 130.400,373.278 140.165,361.399 152.100 M16.622 146.446 C 16.475 150.051,16.410 174.150,16.477 200.000 L 16.600 247.000 44.000 219.552 C 59.070 204.456,71.084 192.304,70.698 192.549 C 70.091 192.935,66.439 189.437,43.443 166.443 L 16.890 139.892 16.622 146.446 M361.500 161.500 L 340.000 183.017 340.000 271.909 L 340.000 360.800 348.780 360.800 C 353.609 360.800,358.514 360.605,359.680 360.367 C 372.419 357.766,381.244 348.506,383.167 335.723 C 383.643 332.558,383.733 145.920,383.260 142.091 L 383.000 139.982 361.500 161.500 M72.975 190.900 L 71.800 192.200 73.100 191.025 C 73.815 190.379,74.400 189.794,74.400 189.725 C 74.400 189.416,74.070 189.688,72.975 190.900 M95.593 232.700 L 91.400 237.000 95.700 232.807 C 98.065 230.501,100.000 228.566,100.000 228.507 C 100.000 228.218,99.487 228.706,95.593 232.700 M254.999 258.500 L 227.000 286.600 255.100 258.601 C 270.555 243.202,283.200 230.557,283.200 230.501 C 283.200 230.221,281.027 232.378,254.999 258.500 M128.200 242.000 C 129.728 243.540,131.069 244.800,131.179 244.800 C 131.289 244.800,130.128 243.540,128.600 242.000 C 127.072 240.460,125.731 239.200,125.621 239.200 C 125.511 239.200,126.672 240.460,128.200 242.000 M255.200 267.798 L 227.400 295.602 227.275 328.201 L 227.149 360.800 255.375 360.800 L 283.600 360.800 283.560 301.300 C 283.538 268.575,283.403 241.394,283.260 240.897 C 283.031 240.102,279.669 243.325,255.200 267.798 M117.458 242.009 C 117.316 242.719,117.200 269.738,117.200 302.050 L 117.200 360.800 144.219 360.800 L 171.238 360.800 171.119 327.400 L 171.000 294.000 144.358 267.359 C 117.827 240.828,117.715 240.723,117.458 242.009 M145.000 258.800 C 147.633 261.440,149.877 263.600,149.987 263.600 C 150.097 263.600,148.033 261.440,145.400 258.800 C 142.767 256.160,140.523 254.000,140.413 254.000 C 140.303 254.000,142.367 256.160,145.000 258.800 M160.600 274.400 C 166.317 280.120,171.084 284.800,171.194 284.800 C 171.304 284.800,166.717 280.120,161.000 274.400 C 155.283 268.680,150.516 264.000,150.406 264.000 C 150.296 264.000,154.883 268.680,160.600 274.400 M39.000 289.807 C 26.900 301.948,16.865 311.807,16.700 311.717 C 15.431 311.023,16.643 336.770,18.079 341.000 C 22.847 355.047,32.615 360.800,51.697 360.800 L 60.793 360.800 60.897 314.300 C 60.954 288.725,61.000 267.785,61.000 267.766 C 61.000 267.748,51.100 277.666,39.000 289.807 " stroke="none" fill="#5b93ea" fill-rule="evenodd"></path><path id="path2" d="M32.200 81.793 C 11.825 84.977,1.740 106.463,12.294 124.200 C 13.361 125.995,21.486 134.383,44.500 157.453 C 72.196 185.216,75.235 188.386,74.847 189.112 C 74.610 189.556,73.172 190.972,71.653 192.259 C 67.979 195.373,16.400 246.881,16.400 247.437 C 16.400 247.675,28.415 235.881,43.100 221.226 C 57.785 206.572,70.491 194.058,71.335 193.417 L 72.871 192.251 75.020 194.426 C 76.202 195.621,77.176 196.808,77.184 197.062 C 77.193 197.316,77.543 198.216,77.963 199.062 C 80.185 203.544,86.992 221.715,87.494 224.505 C 87.603 225.113,87.851 225.708,88.046 225.829 C 88.241 225.949,88.400 226.451,88.400 226.944 C 88.400 227.437,88.548 228.011,88.728 228.220 C 88.908 228.429,89.482 229.950,90.002 231.600 C 90.523 233.250,91.108 234.813,91.302 235.074 C 91.924 235.909,91.466 236.385,53.647 274.173 C 33.185 294.619,16.531 311.489,16.638 311.662 C 16.948 312.164,97.506 231.269,101.665 226.279 C 102.729 225.003,103.599 223.743,103.599 223.479 C 103.598 223.216,97.930 217.330,91.002 210.400 C 84.075 203.470,78.405 197.573,78.403 197.295 C 78.400 196.802,78.212 196.343,77.262 194.505 C 77.008 194.013,76.800 193.259,76.800 192.829 C 76.800 192.399,76.620 191.936,76.400 191.800 C 76.180 191.664,76.000 191.344,76.000 191.089 C 76.000 190.833,82.750 197.369,90.999 205.612 C 99.249 213.856,106.444 220.787,106.988 221.015 C 107.532 221.244,128.503 241.944,153.589 267.015 C 178.674 292.087,199.514 312.650,199.900 312.711 C 200.592 312.821,385.635 128.062,387.499 125.400 C 388.277 124.289,350.423 162.122,243.118 269.700 C 219.693 293.185,200.310 312.400,200.044 312.400 C 199.778 312.400,178.946 291.835,153.751 266.700 C 128.556 241.565,107.639 220.835,107.271 220.634 C 106.256 220.081,75.604 189.460,75.602 188.998 C 75.599 188.476,106.478 157.600,107.003 157.600 C 107.222 157.600,128.101 178.300,153.400 203.600 C 178.699 228.900,199.669 249.600,200.000 249.600 C 200.330 249.600,238.310 211.890,284.400 165.800 C 356.482 93.717,368.367 81.991,369.400 81.935 C 378.317 81.455,338.087 81.304,200.000 81.298 C 70.241 81.294,34.723 81.398,32.200 81.793 M384.400 90.125 C 384.400 90.194,384.985 90.779,385.700 91.425 L 387.000 92.600 385.825 91.300 C 384.730 90.088,384.400 89.816,384.400 90.125 M153.397 97.300 C 153.271 98.455,153.004 100.390,152.804 101.600 C 152.467 103.645,151.892 107.729,151.436 111.323 C 151.230 112.944,151.465 114.000,152.031 114.000 C 152.221 114.000,153.327 114.430,154.488 114.955 C 156.537 115.882,158.582 116.795,162.100 118.353 C 163.035 118.767,165.150 119.688,166.800 120.400 C 168.450 121.112,170.520 122.014,171.400 122.406 C 172.280 122.797,174.120 123.586,175.488 124.159 L 177.976 125.200 200.094 125.200 L 222.212 125.200 227.806 122.783 C 230.883 121.454,233.940 120.123,234.600 119.825 C 236.517 118.961,239.698 117.559,241.000 117.004 C 241.660 116.723,243.100 116.087,244.200 115.591 C 245.300 115.095,246.801 114.435,247.535 114.124 C 248.860 113.564,248.868 113.546,248.616 111.480 C 248.138 107.573,247.562 103.402,247.195 101.200 C 246.536 97.247,246.346 95.200,246.638 95.200 C 247.143 95.200,266.547 110.374,267.458 111.481 C 267.762 111.851,267.797 112.401,267.560 113.119 C 266.696 115.740,264.845 121.595,264.212 123.707 C 263.462 126.212,263.476 126.198,256.000 131.661 C 254.130 133.028,250.980 135.335,249.000 136.788 C 247.020 138.241,242.592 141.486,239.160 143.998 L 232.920 148.566 232.661 155.383 C 232.519 159.132,232.402 165.278,232.401 169.040 L 232.400 175.880 231.244 177.440 C 230.609 178.298,227.183 182.660,223.630 187.134 L 217.172 195.268 217.586 197.507 C 217.814 198.739,218.000 200.695,218.000 201.854 L 218.000 203.960 213.700 208.210 C 211.335 210.548,207.284 214.560,204.699 217.125 L 199.997 221.790 190.999 212.799 L 182.000 203.807 182.000 202.036 C 182.000 201.062,182.196 199.141,182.435 197.766 L 182.870 195.267 180.135 191.809 C 178.631 189.907,175.432 185.888,173.026 182.878 C 167.146 175.522,167.606 176.918,167.601 166.400 C 167.598 161.450,167.481 155.395,167.340 152.944 L 167.083 148.487 159.513 142.944 C 155.350 139.895,151.067 136.770,149.996 136.000 C 141.130 129.626,136.692 126.186,136.397 125.458 C 136.206 124.986,135.307 122.170,134.400 119.200 C 133.493 116.230,132.599 113.423,132.413 112.963 C 131.944 111.802,131.774 111.970,139.865 105.558 C 155.075 93.504,153.723 94.330,153.397 97.300 M392.150 109.400 C 392.151 111.820,392.216 112.758,392.296 111.485 C 392.376 110.212,392.375 108.232,392.294 107.085 C 392.214 105.938,392.149 106.980,392.150 109.400 " stroke="none" fill="#84b4f3" fill-rule="evenodd"></path><path id="path3" d="M172.705 32.283 C 173.202 32.379,173.922 32.375,174.305 32.275 C 174.687 32.175,174.280 32.096,173.400 32.101 C 172.520 32.105,172.207 32.187,172.705 32.283 M225.900 32.282 C 226.395 32.378,227.205 32.378,227.700 32.282 C 228.195 32.187,227.790 32.109,226.800 32.109 C 225.810 32.109,225.405 32.187,225.900 32.282 M244.400 40.125 C 244.400 40.194,244.985 40.779,245.700 41.425 L 247.000 42.600 245.825 41.300 C 244.730 40.088,244.400 39.816,244.400 40.125 M153.578 41.900 L 152.200 43.400 153.700 42.022 C 154.525 41.263,155.200 40.588,155.200 40.522 C 155.200 40.216,154.862 40.504,153.578 41.900 M249.400 44.800 C 250.483 45.900,251.460 46.800,251.570 46.800 C 251.680 46.800,250.883 45.900,249.800 44.800 C 248.717 43.700,247.740 42.800,247.630 42.800 C 247.520 42.800,248.317 43.700,249.400 44.800 M146.581 48.900 L 145.000 50.600 146.700 49.019 C 147.635 48.149,148.400 47.384,148.400 47.319 C 148.400 47.016,148.052 47.319,146.581 48.900 M253.200 49.000 C 253.946 49.770,254.647 50.400,254.757 50.400 C 254.867 50.400,254.346 49.770,253.600 49.000 C 252.854 48.230,252.153 47.600,252.043 47.600 C 251.933 47.600,252.454 48.230,253.200 49.000 M142.575 53.300 L 141.400 54.600 142.700 53.425 C 143.912 52.330,144.184 52.000,143.875 52.000 C 143.806 52.000,143.221 52.585,142.575 53.300 M256.000 52.125 C 256.000 52.194,256.585 52.779,257.300 53.425 L 258.600 54.600 257.425 53.300 C 256.330 52.088,256.000 51.816,256.000 52.125 M140.175 56.100 L 139.000 57.400 140.300 56.225 C 141.512 55.130,141.784 54.800,141.475 54.800 C 141.406 54.800,140.821 55.385,140.175 56.100 M190.300 55.100 C 195.635 55.163,204.365 55.163,209.700 55.100 C 215.035 55.037,210.670 54.985,200.000 54.985 C 189.330 54.985,184.965 55.037,190.300 55.100 M259.600 56.200 C 260.346 56.970,261.047 57.600,261.157 57.600 C 261.267 57.600,260.746 56.970,260.000 56.200 C 259.254 55.430,258.553 54.800,258.443 54.800 C 258.333 54.800,258.854 55.430,259.600 56.200 M227.233 58.530 C 227.325 58.601,228.030 59.066,228.800 59.563 L 230.200 60.466 229.000 59.435 C 228.340 58.868,227.635 58.403,227.433 58.402 C 227.232 58.401,227.142 58.458,227.233 58.530 M264.400 60.925 C 264.400 60.994,264.985 61.579,265.700 62.225 L 267.000 63.400 265.825 62.100 C 264.730 60.888,264.400 60.616,264.400 60.925 M232.888 62.613 C 233.486 63.243,234.047 63.677,234.135 63.579 C 234.223 63.480,233.733 62.965,233.047 62.434 L 231.800 61.469 232.888 62.613 M234.800 64.110 C 234.800 64.171,236.195 65.566,237.900 67.210 L 241.000 70.200 238.010 67.100 C 235.233 64.221,234.800 63.817,234.800 64.110 M161.600 67.400 C 160.628 68.390,159.923 69.200,160.033 69.200 C 160.143 69.200,161.028 68.390,162.000 67.400 C 162.972 66.410,163.677 65.600,163.567 65.600 C 163.457 65.600,162.572 66.410,161.600 67.400 M157.634 71.753 L 156.669 73.000 157.813 71.912 C 158.443 71.314,158.877 70.753,158.779 70.665 C 158.680 70.577,158.165 71.067,157.634 71.753 M82.100 72.676 C 82.485 72.776,83.115 72.776,83.500 72.676 C 83.885 72.575,83.570 72.493,82.800 72.493 C 82.030 72.493,81.715 72.575,82.100 72.676 M75.781 76.100 L 74.200 77.800 75.900 76.219 C 76.835 75.349,77.600 74.584,77.600 74.519 C 77.600 74.216,77.252 74.519,75.781 76.100 M246.791 77.588 C 247.257 78.241,247.842 78.902,248.091 79.056 C 248.341 79.211,248.041 78.676,247.425 77.868 C 246.088 76.115,245.584 75.892,246.791 77.588 M7.724 109.400 C 7.726 110.720,7.801 111.212,7.890 110.493 C 7.979 109.774,7.977 108.694,7.886 108.093 C 7.795 107.492,7.722 108.080,7.724 109.400 M16.571 138.200 C 16.555 142.600,16.608 144.768,16.689 143.019 L 16.835 139.837 43.414 166.414 C 69.637 192.635,70.005 192.982,70.946 192.395 C 72.342 191.524,74.800 189.280,74.800 188.876 C 74.800 188.685,61.705 175.404,45.700 159.364 L 16.600 130.200 16.571 138.200 M291.633 222.040 C 241.381 272.288,206.377 307.325,213.847 299.900 C 226.282 287.538,228.400 285.632,228.400 286.800 C 228.400 287.020,228.245 287.200,228.056 287.200 C 227.867 287.200,227.587 289.514,227.433 292.342 L 227.154 297.484 215.477 309.152 C 198.212 326.404,201.818 326.523,183.460 308.098 L 171.520 296.115 171.178 293.158 C 170.989 291.531,170.827 289.165,170.818 287.900 C 170.808 286.635,170.620 285.600,170.400 285.600 C 170.180 285.600,170.000 285.420,170.000 285.200 C 170.000 284.024,172.189 286.013,185.287 299.093 C 193.159 306.953,199.600 313.296,199.600 313.188 C 199.600 313.079,181.060 294.572,158.400 272.062 C 135.740 249.552,117.200 231.226,117.200 231.339 C 117.200 231.451,117.499 231.842,117.865 232.208 C 118.286 232.628,118.378 232.969,118.117 233.136 C 117.890 233.281,117.573 234.830,117.411 236.577 C 116.921 241.876,117.429 242.038,109.418 234.018 L 102.252 226.843 102.813 225.722 C 103.122 225.105,103.454 224.420,103.552 224.200 C 103.649 223.980,102.641 225.150,101.312 226.800 C 99.982 228.450,90.368 238.340,79.947 248.778 L 61.000 267.756 60.895 314.278 L 60.790 360.800 88.995 360.800 L 117.200 360.800 117.240 301.700 C 117.262 269.195,117.397 242.194,117.540 241.697 C 117.769 240.901,120.981 243.975,144.400 267.398 L 171.000 294.002 171.119 327.401 L 171.238 360.800 199.194 360.800 L 227.149 360.800 227.275 328.201 L 227.400 295.602 255.200 267.798 C 279.669 243.325,283.031 240.102,283.260 240.897 C 283.403 241.394,283.538 268.575,283.560 301.300 L 283.600 360.800 311.800 360.800 L 340.000 360.800 340.000 271.909 L 340.000 183.017 361.500 161.499 L 383.000 139.980 383.237 141.890 C 383.583 144.675,383.593 139.966,383.253 134.640 L 383.000 130.679 291.633 222.040 M46.035 160.435 C 61.451 175.854,73.975 188.559,73.865 188.668 C 73.724 188.809,39.186 154.439,26.882 141.913 C 26.727 141.755,24.800 139.861,22.600 137.703 C 18.456 133.639,17.324 132.400,17.753 132.400 C 17.892 132.400,30.618 145.016,46.035 160.435 M381.949 133.086 C 381.513 133.630,376.258 139.113,374.364 141.000 C 374.143 141.220,370.506 144.861,366.281 149.090 C 356.664 158.719,358.229 157.154,349.145 166.218 C 344.885 170.468,341.164 174.231,340.877 174.581 C 340.572 174.951,340.174 177.291,339.924 180.182 L 339.495 185.148 311.859 212.782 C 289.115 235.525,284.174 240.282,283.944 239.660 C 283.790 239.244,283.536 237.440,283.380 235.652 C 283.035 231.698,283.549 231.603,278.773 236.500 C 276.574 238.755,274.592 240.780,274.368 241.000 C 274.145 241.220,270.481 244.885,266.226 249.145 C 256.875 258.508,258.520 256.862,249.086 266.286 C 244.793 270.573,241.101 274.261,240.881 274.481 C 234.244 281.126,228.690 286.424,228.530 286.263 C 228.416 286.149,230.905 283.521,234.062 280.422 C 237.218 277.323,240.135 274.451,240.545 274.039 C 240.955 273.627,244.621 269.961,248.692 265.892 C 258.068 256.520,257.193 257.396,265.835 248.747 C 269.872 244.706,273.586 240.995,274.088 240.500 C 274.590 240.005,276.890 237.596,279.200 235.146 C 289.021 224.730,339.478 174.355,340.300 174.144 C 340.795 174.017,341.200 173.754,341.200 173.559 C 341.200 173.365,344.527 169.919,348.594 165.903 C 352.660 161.886,356.551 158.036,357.240 157.347 C 357.930 156.658,361.797 152.788,365.835 148.747 C 369.872 144.706,373.586 140.996,374.088 140.502 C 374.590 140.008,376.530 137.995,378.400 136.029 C 381.373 132.903,383.521 131.122,381.949 133.086 M112.200 226.000 C 114.833 228.640,117.077 230.800,117.187 230.800 C 117.297 230.800,115.233 228.640,112.600 226.000 C 109.967 223.360,107.723 221.200,107.613 221.200 C 107.503 221.200,109.567 223.360,112.200 226.000 M144.435 258.835 C 158.531 272.934,169.974 284.559,169.865 284.668 C 169.724 284.809,138.790 254.039,126.882 241.913 C 126.727 241.755,124.755 239.826,122.500 237.627 C 118.701 233.921,118.066 233.200,118.603 233.200 C 118.715 233.200,130.339 244.736,144.435 258.835 M16.501 334.600 C 16.505 335.480,16.587 335.793,16.683 335.295 C 16.779 334.798,16.775 334.078,16.675 333.695 C 16.575 333.313,16.496 333.720,16.501 334.600 M383.293 335.200 C 383.293 335.970,383.375 336.285,383.476 335.900 C 383.576 335.515,383.576 334.885,383.476 334.500 C 383.375 334.115,383.293 334.430,383.293 335.200 M378.185 348.500 C 377.568 349.435,377.320 349.989,377.632 349.731 C 378.233 349.234,379.764 346.800,379.476 346.800 C 379.383 346.800,378.802 347.565,378.185 348.500 M375.200 352.200 C 374.228 353.190,373.523 354.000,373.633 354.000 C 373.743 354.000,374.628 353.190,375.600 352.200 C 376.572 351.210,377.277 350.400,377.167 350.400 C 377.057 350.400,376.172 351.210,375.200 352.200 M24.800 352.600 C 25.546 353.370,26.247 354.000,26.357 354.000 C 26.467 354.000,25.946 353.370,25.200 352.600 C 24.454 351.830,23.753 351.200,23.643 351.200 C 23.533 351.200,24.054 351.830,24.800 352.600 M26.944 354.309 C 27.260 354.821,29.600 356.553,29.600 356.275 C 29.600 356.176,28.939 355.591,28.132 354.975 C 27.324 354.359,26.789 354.059,26.944 354.309 " stroke="none" fill="#4c74cb" fill-rule="evenodd"></path><path id="path4" d="M169.200 29.597 C 168.870 29.812,168.193 29.991,167.695 29.994 C 166.821 30.000,166.446 30.135,164.505 31.138 C 164.013 31.392,163.338 31.600,163.005 31.600 C 162.672 31.600,162.400 31.780,162.400 32.000 C 162.400 32.220,162.040 32.400,161.600 32.400 C 161.160 32.400,160.800 32.580,160.800 32.800 C 160.800 33.020,160.440 33.200,160.000 33.200 C 159.560 33.200,159.200 33.350,159.200 33.532 C 159.200 33.715,158.705 34.119,158.100 34.430 C 157.495 34.740,156.709 35.311,156.353 35.697 C 155.997 36.084,155.492 36.400,155.231 36.400 C 154.970 36.400,153.696 37.480,152.400 38.800 C 151.104 40.120,149.873 41.200,149.665 41.200 C 149.456 41.200,147.961 42.677,146.342 44.483 C 144.724 46.288,142.545 48.647,141.500 49.723 C 140.455 50.800,139.600 51.845,139.600 52.046 C 139.600 52.937,129.060 62.800,128.108 62.800 C 127.882 62.800,127.477 63.066,127.207 63.392 C 126.665 64.044,126.635 64.061,120.305 67.250 C 119.923 67.443,119.338 67.600,119.005 67.600 C 118.672 67.600,118.400 67.780,118.400 68.000 C 118.400 68.220,117.781 68.400,117.024 68.400 C 116.267 68.400,115.536 68.580,115.400 68.800 C 115.242 69.056,109.137 69.200,98.400 69.200 C 87.663 69.200,81.558 69.344,81.400 69.600 C 81.264 69.820,80.623 70.000,79.976 70.000 C 79.329 70.000,78.800 70.180,78.800 70.400 C 78.800 70.620,78.440 70.800,78.000 70.800 C 77.560 70.800,77.200 70.980,77.200 71.200 C 77.200 71.420,76.926 71.600,76.591 71.600 C 75.799 71.600,71.600 75.799,71.600 76.591 C 71.600 76.926,71.420 77.200,71.200 77.200 C 70.980 77.200,70.800 77.470,70.800 77.800 C 70.800 78.325,68.334 78.400,51.006 78.400 C 31.949 78.400,28.848 78.559,26.705 79.647 C 26.323 79.841,25.820 80.000,25.586 80.000 C 25.352 80.000,24.416 80.360,23.506 80.800 C 22.595 81.240,21.614 81.600,21.325 81.600 C 21.036 81.600,20.800 81.780,20.800 82.000 C 20.800 82.220,20.564 82.400,20.275 82.400 C 19.987 82.400,19.364 82.760,18.892 83.200 C 18.420 83.640,17.881 84.000,17.695 84.000 C 16.883 84.000,11.074 90.162,10.315 91.827 C 10.071 92.362,9.720 92.800,9.536 92.800 C 9.351 92.800,9.200 93.160,9.200 93.600 C 9.200 94.040,9.020 94.400,8.800 94.400 C 8.580 94.400,8.400 94.760,8.400 95.200 C 8.400 95.640,8.220 96.000,8.000 96.000 C 7.780 96.000,7.600 96.360,7.600 96.800 C 7.600 97.240,7.420 97.600,7.200 97.600 C 6.980 97.600,6.800 98.039,6.800 98.576 C 6.800 99.113,6.620 99.664,6.400 99.800 C 6.180 99.936,6.000 100.667,6.000 101.424 C 6.000 102.181,5.820 102.800,5.600 102.800 C 5.349 102.800,5.200 105.267,5.200 109.400 C 5.200 113.533,5.349 116.000,5.600 116.000 C 5.820 116.000,6.000 116.619,6.000 117.376 C 6.000 118.133,6.180 118.864,6.400 119.000 C 6.620 119.136,6.800 119.687,6.800 120.224 C 6.800 120.761,6.980 121.200,7.200 121.200 C 7.420 121.200,7.600 121.560,7.600 122.000 C 7.600 122.440,7.780 122.800,8.000 122.800 C 8.220 122.800,8.400 123.160,8.400 123.600 C 8.400 124.040,8.580 124.400,8.800 124.400 C 9.020 124.400,9.200 124.760,9.200 125.200 C 9.200 125.640,9.368 126.000,9.573 126.000 C 9.778 126.000,10.054 126.339,10.185 126.752 C 10.316 127.166,10.789 127.931,11.236 128.452 C 11.683 128.974,12.398 129.806,12.824 130.303 C 13.588 131.192,13.600 132.862,13.600 234.779 C 13.600 303.397,13.735 338.436,14.000 338.600 C 14.220 338.736,14.400 339.467,14.400 340.224 C 14.400 340.981,14.580 341.600,14.800 341.600 C 15.020 341.600,15.200 342.039,15.200 342.576 C 15.200 343.113,15.380 343.664,15.600 343.800 C 15.820 343.936,16.000 344.397,16.000 344.824 C 16.000 345.251,16.180 345.600,16.400 345.600 C 16.620 345.600,16.800 345.960,16.800 346.400 C 16.800 346.840,16.980 347.200,17.200 347.200 C 17.420 347.200,17.600 347.560,17.600 348.000 C 17.600 348.440,17.780 348.800,18.000 348.800 C 18.220 348.800,18.400 349.043,18.400 349.341 C 18.400 349.638,18.940 350.446,19.600 351.137 C 20.260 351.828,20.800 352.537,20.800 352.713 C 20.800 353.182,23.961 356.094,25.697 357.225 C 26.521 357.761,27.196 358.335,27.197 358.500 C 27.199 358.665,27.560 358.800,28.000 358.800 C 28.440 358.800,28.800 358.980,28.800 359.200 C 28.800 359.420,29.070 359.600,29.400 359.600 C 29.730 359.600,30.000 359.780,30.000 360.000 C 30.000 360.220,30.360 360.400,30.800 360.400 C 31.240 360.400,31.600 360.580,31.600 360.800 C 31.600 361.020,31.960 361.200,32.400 361.200 C 32.840 361.200,33.200 361.380,33.200 361.600 C 33.200 361.820,33.740 362.000,34.400 362.000 C 35.060 362.000,35.600 362.180,35.600 362.400 C 35.600 362.620,36.219 362.800,36.976 362.800 C 37.733 362.800,38.464 362.980,38.600 363.200 C 38.943 363.755,361.057 363.755,361.400 363.200 C 361.536 362.980,362.267 362.800,363.024 362.800 C 363.781 362.800,364.400 362.620,364.400 362.400 C 364.400 362.180,364.940 362.000,365.600 362.000 C 366.260 362.000,366.800 361.820,366.800 361.600 C 366.800 361.380,367.160 361.200,367.600 361.200 C 368.040 361.200,368.400 361.020,368.400 360.800 C 368.400 360.580,368.760 360.400,369.200 360.400 C 369.640 360.400,370.000 360.264,370.000 360.098 C 370.000 359.931,370.585 359.542,371.300 359.232 C 373.232 358.395,379.200 353.491,379.200 352.742 C 379.200 352.550,379.740 351.828,380.400 351.137 C 381.060 350.446,381.600 349.638,381.600 349.341 C 381.600 349.043,381.780 348.800,382.000 348.800 C 382.220 348.800,382.400 348.440,382.400 348.000 C 382.400 347.560,382.580 347.200,382.800 347.200 C 383.020 347.200,383.200 346.840,383.200 346.400 C 383.200 345.960,383.380 345.600,383.600 345.600 C 383.820 345.600,384.000 345.240,384.000 344.800 C 384.000 344.360,384.180 344.000,384.400 344.000 C 384.620 344.000,384.800 343.460,384.800 342.800 C 384.800 342.140,384.980 341.600,385.200 341.600 C 385.420 341.600,385.600 340.981,385.600 340.224 C 385.600 339.467,385.780 338.736,386.000 338.600 C 386.265 338.436,386.400 303.396,386.400 234.777 L 386.400 131.202 388.000 129.503 C 388.880 128.569,389.600 127.676,389.600 127.520 C 389.600 127.364,390.050 126.572,390.600 125.762 C 391.150 124.951,391.600 123.953,391.600 123.544 C 391.600 123.135,391.780 122.800,392.000 122.800 C 392.220 122.800,392.400 122.440,392.400 122.000 C 392.400 121.560,392.580 121.200,392.800 121.200 C 393.020 121.200,393.200 120.761,393.200 120.224 C 393.200 119.687,393.380 119.136,393.600 119.000 C 393.820 118.864,394.000 118.133,394.000 117.376 C 394.000 116.619,394.180 116.000,394.400 116.000 C 394.651 116.000,394.800 113.533,394.800 109.400 C 394.800 105.267,394.651 102.800,394.400 102.800 C 394.180 102.800,394.000 102.181,394.000 101.424 C 394.000 100.667,393.820 99.936,393.600 99.800 C 393.380 99.664,393.200 99.113,393.200 98.576 C 393.200 98.039,393.020 97.600,392.800 97.600 C 392.580 97.600,392.400 97.240,392.400 96.800 C 392.400 96.360,392.220 96.000,392.000 96.000 C 391.780 96.000,391.600 95.665,391.600 95.256 C 391.600 94.847,391.150 93.849,390.600 93.038 C 390.050 92.228,389.600 91.416,389.600 91.234 C 389.600 90.750,382.861 84.000,382.378 84.000 C 382.152 84.000,381.580 83.640,381.108 83.200 C 380.636 82.760,380.013 82.400,379.725 82.400 C 379.436 82.400,379.200 82.220,379.200 82.000 C 379.200 81.780,378.964 81.600,378.675 81.600 C 378.386 81.600,377.405 81.240,376.494 80.800 C 375.584 80.360,374.648 80.000,374.414 80.000 C 374.180 80.000,373.677 79.841,373.295 79.647 C 371.152 78.559,368.051 78.400,348.994 78.400 C 331.666 78.400,329.200 78.325,329.200 77.800 C 329.200 77.470,329.020 77.200,328.800 77.200 C 328.580 77.200,328.400 76.926,328.400 76.591 C 328.400 75.799,324.201 71.600,323.409 71.600 C 323.074 71.600,322.799 71.465,322.797 71.300 C 322.792 70.857,320.779 70.000,319.744 70.000 C 319.251 70.000,318.736 69.820,318.600 69.600 C 318.442 69.344,312.337 69.200,301.600 69.200 C 290.863 69.200,284.758 69.056,284.600 68.800 C 284.464 68.580,283.733 68.400,282.976 68.400 C 282.219 68.400,281.600 68.220,281.600 68.000 C 281.600 67.780,281.328 67.600,280.995 67.600 C 280.662 67.600,280.077 67.443,279.695 67.250 C 279.313 67.058,278.280 66.549,277.400 66.120 C 275.156 65.026,273.966 64.310,273.050 63.505 C 272.615 63.122,271.931 62.705,271.529 62.578 C 271.128 62.450,270.800 62.190,270.800 62.000 C 270.800 61.810,270.449 61.542,270.020 61.406 C 269.105 61.116,259.600 51.841,259.600 51.238 C 259.600 51.013,258.421 49.607,256.979 48.114 C 255.538 46.621,253.783 44.646,253.079 43.724 C 252.376 42.803,251.350 41.813,250.800 41.524 C 250.250 41.236,248.775 39.965,247.522 38.700 C 246.269 37.435,245.004 36.400,244.710 36.400 C 244.417 36.400,243.917 36.040,243.600 35.600 C 243.283 35.160,242.827 34.800,242.587 34.800 C 242.347 34.800,241.802 34.478,241.375 34.085 C 240.433 33.216,235.486 30.800,234.649 30.800 C 234.318 30.800,233.948 30.640,233.827 30.444 C 233.210 29.445,170.692 28.626,169.200 29.597 M230.950 32.806 C 236.946 34.317,249.203 42.532,251.480 46.566 C 251.656 46.878,252.613 48.004,253.606 49.067 C 255.194 50.766,261.038 57.332,262.181 58.702 C 264.433 61.399,271.471 66.564,275.917 68.783 C 282.477 72.056,282.844 72.106,302.200 72.368 C 322.639 72.644,323.581 72.913,326.399 79.300 L 327.237 81.200 347.719 81.214 C 368.477 81.229,370.048 81.323,373.800 82.776 C 382.095 85.989,388.952 93.214,391.096 101.000 C 392.260 105.226,392.400 106.130,392.400 109.400 C 392.400 112.670,392.260 113.574,391.096 117.800 C 390.317 120.629,387.741 125.599,386.426 126.808 C 386.302 126.923,385.602 127.665,384.872 128.456 L 383.544 129.896 383.585 232.734 C 383.627 334.233,383.617 335.614,382.829 338.779 C 380.182 349.416,372.023 357.623,361.574 360.162 C 357.561 361.137,42.458 361.140,38.426 360.165 C 27.507 357.525,19.232 348.683,16.782 337.041 C 16.505 335.722,16.385 301.566,16.416 232.520 L 16.462 129.959 14.717 127.880 C 4.750 116.004,5.424 100.148,16.361 89.212 C 19.136 86.437,24.198 83.357,27.400 82.494 C 28.280 82.257,29.741 81.869,30.646 81.632 C 31.720 81.350,39.332 81.200,52.528 81.200 L 72.763 81.200 73.602 79.300 C 74.613 77.011,76.373 75.103,78.800 73.666 L 80.600 72.600 97.800 72.368 C 120.919 72.055,123.158 71.364,135.937 60.600 C 136.460 60.160,138.617 57.820,140.730 55.400 C 154.852 39.232,160.617 34.805,170.600 32.459 C 174.170 31.620,227.460 31.927,230.950 32.806 M179.253 55.591 C 172.952 57.120,162.893 65.427,154.297 76.200 L 150.467 81.000 175.233 81.103 C 188.855 81.160,211.189 81.160,224.866 81.103 L 249.731 81.000 248.166 79.146 C 247.304 78.127,245.260 75.640,243.622 73.621 C 237.632 66.234,230.214 59.900,224.000 56.865 L 221.000 55.400 200.800 55.332 C 189.690 55.295,179.994 55.412,179.253 55.591 M222.300 59.100 C 222.392 59.375,222.812 59.600,223.233 59.600 C 223.655 59.600,224.000 59.780,224.000 60.000 C 224.000 60.220,224.320 60.400,224.712 60.400 C 225.103 60.400,225.683 60.760,226.000 61.200 C 226.317 61.640,226.792 62.000,227.054 62.000 C 227.317 62.000,228.042 62.540,228.665 63.200 C 229.288 63.860,229.944 64.400,230.124 64.400 C 230.583 64.400,241.200 74.856,241.200 75.308 C 241.200 75.512,241.765 76.207,242.455 76.851 C 243.145 77.496,243.624 78.109,243.520 78.214 C 243.415 78.318,223.773 78.358,199.870 78.302 L 156.411 78.200 157.605 76.922 C 158.262 76.219,158.800 75.496,158.800 75.317 C 158.800 74.907,169.474 64.401,169.893 64.398 C 170.062 64.397,170.775 63.857,171.478 63.198 C 172.181 62.539,172.946 62.000,173.178 62.000 C 173.410 62.000,173.600 61.820,173.600 61.600 C 173.600 61.380,173.870 61.200,174.200 61.200 C 174.530 61.200,174.800 61.020,174.800 60.800 C 174.800 60.580,175.070 60.400,175.400 60.400 C 175.730 60.400,176.000 60.220,176.000 60.000 C 176.000 59.780,176.360 59.600,176.800 59.600 C 177.240 59.600,177.600 59.432,177.600 59.227 C 177.600 58.300,221.992 58.174,222.300 59.100 M18.051 133.090 C 18.353 133.470,20.400 135.545,22.600 137.703 C 24.800 139.861,26.727 141.755,26.882 141.913 C 39.186 154.439,73.724 188.809,73.865 188.668 C 74.078 188.456,18.178 132.400,17.753 132.400 C 17.615 132.400,17.749 132.711,18.051 133.090 M378.400 136.029 C 376.530 137.995,374.590 140.008,374.088 140.502 C 373.586 140.996,369.872 144.706,365.835 148.747 C 361.797 152.788,357.930 156.658,357.240 157.347 C 356.551 158.036,352.660 161.886,348.594 165.903 C 344.527 169.919,341.200 173.365,341.200 173.559 C 341.200 173.754,340.795 174.017,340.300 174.144 C 339.478 174.355,289.021 224.730,279.200 235.146 C 276.890 237.596,274.590 240.005,274.088 240.500 C 273.586 240.995,269.872 244.706,265.835 248.747 C 261.797 252.788,257.954 256.634,257.294 257.294 C 256.634 257.954,252.788 261.797,248.747 265.835 C 244.706 269.872,240.994 273.586,240.498 274.088 C 240.002 274.590,236.875 277.610,233.550 280.800 C 230.224 283.990,221.446 292.585,214.044 299.900 C 206.641 307.215,200.321 313.200,199.998 313.200 C 199.676 313.200,192.994 306.855,185.150 299.100 C 164.887 279.069,118.296 232.462,112.600 226.526 C 109.960 223.774,107.484 221.401,107.097 221.252 C 106.710 221.102,99.555 214.150,91.197 205.802 C 82.839 197.454,76.000 190.833,76.000 191.089 C 76.000 191.344,76.180 191.664,76.400 191.800 C 76.620 191.936,76.800 192.399,76.800 192.829 C 76.800 193.259,76.980 193.968,77.200 194.405 C 77.420 194.842,77.780 195.558,78.000 195.995 C 78.220 196.432,78.401 197.017,78.403 197.295 C 78.405 197.573,84.075 203.470,91.002 210.400 C 103.981 223.383,104.075 223.503,102.900 225.561 L 102.200 226.786 109.392 233.990 C 117.461 242.070,116.943 241.912,117.420 236.452 C 117.576 234.663,117.772 233.200,117.856 233.200 C 117.974 233.200,123.826 238.854,126.941 241.978 C 127.194 242.231,137.165 252.238,149.100 264.216 L 170.800 285.993 170.818 288.097 C 170.827 289.253,170.989 291.531,171.178 293.158 L 171.520 296.115 183.460 308.098 C 201.818 326.522,198.213 326.403,215.472 309.156 L 227.145 297.493 227.430 292.480 L 227.716 287.466 234.158 281.118 C 237.701 277.626,240.753 274.614,240.941 274.425 C 241.128 274.236,244.793 270.573,249.086 266.286 C 258.520 256.862,256.875 258.508,266.226 249.145 C 270.481 244.885,274.145 241.220,274.368 241.000 C 274.592 240.780,276.574 238.755,278.773 236.500 C 283.549 231.603,283.035 231.698,283.380 235.652 C 283.536 237.440,283.790 239.244,283.944 239.660 C 284.174 240.282,289.115 235.525,311.859 212.782 L 339.495 185.148 339.924 180.182 C 340.174 177.291,340.572 174.951,340.877 174.581 C 341.164 174.231,344.885 170.468,349.145 166.218 C 358.229 157.154,356.664 158.719,366.281 149.090 C 370.506 144.861,374.143 141.220,374.364 141.000 C 379.492 135.892,382.676 132.386,382.149 132.427 C 381.957 132.442,380.270 134.063,378.400 136.029 " stroke="none" fill="#446fb2" fill-rule="evenodd"></path></g></svg>